<svg xmlns="http://www.w3.org/2000/svg" viewBox="0 0 24 24"><path d="M21.9453 2.7646a1.5518 1.5518 0 00-1.5723-.244L2.456 9.7538c-.788.3244-1.164 1.2263-.8396 2.0144.1678.4076.5018.724.9178.8694l3.8652 1.3437 2.0947 6.9258c.0043.0141.0172.0227.0226.0363a.4857.4857 0 00.0933.1499.4692.4692 0 00.0485.0494.4898.4898 0 00.178.094c.01.003.0166.0119.0267.0142l.0059-.0003.003.0013a.448.448 0 00.1015.0107.4875.4875 0 00.1313-.0229c.0083-.0023.0166-.0016.0246-.0043a.4948.4948 0 00.1915-.123c.0063-.0062.0157-.0073.0217-.0139l3.0137-3.3252 4.3965 3.4043c.2671.2089.5965.3224.9355.3223a1.5511 1.5511 0 001.5176-1.2314L22.4688 4.251a1.533 1.533 0 00-.5235-1.4864zM9.588 15.295l-.7072 3.4368-1.4749-4.8778 7.3149-3.809-4.997 4.997a.4981.4981 0 00-.1358.253zm8.6387 4.7725a.5403.5403 0 01-.3467.3984.5245.5245 0 01-.5137-.0781l-4.7637-3.6885a.4994.4994 0 00-.6757.0596L9.831 19.071l.706-3.4274 7.1885-7.1895a.4997.4997 0 00-.584-.7969L6.7783 13.054l-3.917-1.3615a.5256.5256 0 01-.3613-.4932.5324.5324 0 01.334-.5185l17.914-7.2325a.536.536 0 01.5577.086.5228.5228 0 01.1826.5176l-3.2617 16.0156z"/></svg>
