<svg xmlns="http://www.w3.org/2000/svg" data-name="Layer 1" viewBox="0 0 24 24"><path d="M10.0703 20.503a1 1 0 00-1.1811-.9835c-1.3091.2402-2.962.2764-3.4014-.958a5.7075 5.7075 0 00-1.837-2.415 1.2007 1.2007 0 01-.1664-.1094 1 1 0 00-.9307-.6455h-.0049a.9997.9997 0 00-1 .9951c-.0039.8155.811 1.338 1.1416 1.5147a4.4408 4.4408 0 01.9239 1.3594c.3642 1.0234 1.4228 2.5761 4.4658 2.376.001.0351.002.0683.0024.0986l.0044.2676a1 1 0 002 0l-.0049-.3184c-.0049-.1895-.0117-.464-.0117-1.1817zm10.667-15.126c.0317-.125.063-.2638.0903-.42a6.278 6.278 0 00-.4082-3.293 1.002 1.002 0 00-.6157-.58c-.356-.1202-1.6704-.3565-4.184 1.25a13.8692 13.8692 0 00-6.354 0C6.7621.751 5.4545.9657 5.102 1.079a.9974.9974 0 00-.6313.584 6.3003 6.3003 0 00-.4033 3.3565c.0244.128.0508.2461.0781.3545a6.2693 6.2693 0 00-1.2554 3.8291 8.4217 8.4217 0 00.0425.9219c.334 4.6025 3.334 5.9844 5.4243 6.459a4.591 4.591 0 00-.1181.4004 1.0002 1.0002 0 001.9424.4785 1.6784 1.6784 0 01.4677-.878.9995.9995 0 00-.5459-1.745c-3.454-.3946-4.9536-1.8018-5.1792-4.8985a6.6108 6.6108 0 01-.0337-.7383 4.2577 4.2577 0 01.9195-2.7129 3.022 3.022 0 01.1958-.2314.9999.9999 0 00.188-1.0244 3.3876 3.3876 0 01-.1553-.5557 4.0936 4.0936 0 01.0786-1.6152 7.5426 7.5426 0 012.415 1.1796 1.0088 1.0088 0 00.8276.1329 11.7772 11.7772 0 016.1729.001 1.0055 1.0055 0 00.8306-.1377 7.572 7.572 0 012.4052-1.1905 4.0398 4.0398 0 01.0874 1.5782 3.205 3.205 0 01-.169.6074.9999.9999 0 00.188 1.0244 6.135 6.135 0 01.2237.2686A4.1219 4.1219 0 0120 9.203a7.0389 7.0389 0 01-.0376.7774c-.2202 3.0556-1.7256 4.4638-5.1958 4.8593a1 1 0 00-.5454 1.7461 1.6308 1.6308 0 01.4663.9082 3.0608 3.0608 0 01.0923.8194v2.334c-.0098.6474-.0098 1.1327-.0098 1.3554a1 1 0 102 0c0-.2168 0-.6924.0098-1.3398v-2.3496a4.8815 4.8815 0 00-.1548-1.3116 4.2564 4.2564 0 00-.1162-.416 6.5126 6.5126 0 005.4453-6.4238A8.6968 8.6968 0 0022 9.2031a6.1306 6.1306 0 00-1.2627-3.8262z"/></svg>
